<svg width="404" height="66" viewBox="0 0 404 66" fill="none" xmlns="http://www.w3.org/2000/svg">
<path d="M6.89915 51H0.713068L18.6051 2.27273H24.696L42.5881 51H36.402L21.8409 9.98153H21.4602L6.89915 51ZM9.18324 31.9659H34.1179V37.2003H9.18324V31.9659ZM55.0316 29.0156V51H49.4165V14.4545H54.8413V20.1648H55.3171C56.1737 18.3089 57.4743 16.8179 59.2191 15.6918C60.9639 14.5497 63.2163 13.9787 65.9762 13.9787C68.4506 13.9787 70.6158 14.4863 72.4716 15.5014C74.3274 16.5007 75.7708 18.0234 76.8018 20.0696C77.8329 22.0999 78.3484 24.6695 78.3484 27.7784V51H72.7333V28.1591C72.7333 25.2881 71.9878 23.0516 70.4968 21.4496C69.0058 19.8317 66.9596 19.0227 64.3583 19.0227C62.5659 19.0227 60.9639 19.4113 59.5522 20.1886C58.1564 20.9658 57.054 22.0999 56.245 23.5909C55.4361 25.0819 55.0316 26.8902 55.0316 29.0156ZM102.409 51.7614C99.3632 51.7614 96.6746 50.9921 94.343 49.4535C92.0113 47.899 90.1872 45.7101 88.8706 42.8867C87.5541 40.0475 86.8959 36.6927 86.8959 32.8224C86.8959 28.9839 87.5541 25.6529 88.8706 22.8295C90.1872 20.0062 92.0192 17.8252 94.3667 16.2866C96.7143 14.748 99.4266 13.9787 102.504 13.9787C104.883 13.9787 106.763 14.3752 108.143 15.1683C109.539 15.9455 110.601 16.8338 111.331 17.8331C112.076 18.8165 112.655 19.6255 113.068 20.2599H113.544V2.27273H119.159V51H113.734V45.3849H113.068C112.655 46.0511 112.068 46.8918 111.307 47.907C110.546 48.9062 109.459 49.8024 108.047 50.5955C106.636 51.3728 104.756 51.7614 102.409 51.7614ZM103.17 46.7173C105.422 46.7173 107.326 46.1304 108.88 44.9567C110.435 43.767 111.616 42.1254 112.425 40.0316C113.234 37.922 113.639 35.4872 113.639 32.7273C113.639 29.9991 113.242 27.6119 112.449 25.5657C111.656 23.5037 110.482 21.9016 108.928 20.7596C107.373 19.6017 105.454 19.0227 103.17 19.0227C100.791 19.0227 98.808 19.6334 97.2219 20.8548C95.6515 22.0603 94.4698 23.7019 93.6768 25.7798C92.8995 27.8419 92.5109 30.1577 92.5109 32.7273C92.5109 35.3286 92.9075 37.692 93.7006 39.8175C94.5095 41.9271 95.6991 43.6084 97.2694 44.8615C98.8556 46.0987 100.822 46.7173 103.17 46.7173ZM130.222 51V14.4545H135.647V19.9744H136.028C136.694 18.1662 137.899 16.699 139.644 15.5728C141.389 14.4466 143.356 13.8835 145.545 13.8835C145.957 13.8835 146.473 13.8915 147.091 13.9073C147.71 13.9232 148.178 13.947 148.495 13.9787V19.6889C148.305 19.6413 147.868 19.57 147.186 19.4748C146.52 19.3638 145.814 19.3082 145.069 19.3082C143.292 19.3082 141.706 19.681 140.31 20.4265C138.93 21.1561 137.836 22.1713 137.027 23.4719C136.234 24.7567 135.837 26.224 135.837 27.8736V51H130.222ZM168.885 51.7614C165.586 51.7614 162.691 50.9762 160.201 49.4059C157.726 47.8356 155.791 45.6387 154.396 42.8153C153.016 39.992 152.326 36.6927 152.326 32.9176C152.326 29.1108 153.016 25.7878 154.396 22.9485C155.791 20.1093 157.726 17.9045 160.201 16.3342C162.691 14.7638 165.586 13.9787 168.885 13.9787C172.184 13.9787 175.071 14.7638 177.546 16.3342C180.036 17.9045 181.971 20.1093 183.351 22.9485C184.747 25.7878 185.445 29.1108 185.445 32.9176C185.445 36.6927 184.747 39.992 183.351 42.8153C181.971 45.6387 180.036 47.8356 177.546 49.4059C175.071 50.9762 172.184 51.7614 168.885 51.7614ZM168.885 46.7173C171.391 46.7173 173.453 46.0749 175.071 44.7901C176.689 43.5053 177.887 41.8161 178.664 39.7223C179.441 37.6286 179.83 35.3603 179.83 32.9176C179.83 30.4749 179.441 28.1987 178.664 26.0891C177.887 23.9795 176.689 22.2744 175.071 20.9737C173.453 19.6731 171.391 19.0227 168.885 19.0227C166.379 19.0227 164.317 19.6731 162.699 20.9737C161.081 22.2744 159.884 23.9795 159.106 26.0891C158.329 28.1987 157.941 30.4749 157.941 32.9176C157.941 35.3603 158.329 37.6286 159.106 39.7223C159.884 41.8161 161.081 43.5053 162.699 44.7901C164.317 46.0749 166.379 46.7173 168.885 46.7173ZM194.016 51V14.4545H199.631V51H194.016ZM196.871 8.36364C195.777 8.36364 194.833 7.99089 194.04 7.24538C193.263 6.49988 192.874 5.60369 192.874 4.55682C192.874 3.50994 193.263 2.61375 194.04 1.86825C194.833 1.12275 195.777 0.75 196.871 0.75C197.966 0.75 198.902 1.12275 199.679 1.86825C200.472 2.61375 200.868 3.50994 200.868 4.55682C200.868 5.60369 200.472 6.49988 199.679 7.24538C198.902 7.99089 197.966 8.36364 196.871 8.36364ZM223.715 51.7614C220.67 51.7614 217.981 50.9921 215.65 49.4535C213.318 47.899 211.494 45.7101 210.177 42.8867C208.861 40.0475 208.203 36.6927 208.203 32.8224C208.203 28.9839 208.861 25.6529 210.177 22.8295C211.494 20.0062 213.326 17.8252 215.673 16.2866C218.021 14.748 220.733 13.9787 223.81 13.9787C226.19 13.9787 228.069 14.3752 229.449 15.1683C230.845 15.9455 231.908 16.8338 232.638 17.8331C233.383 18.8165 233.962 19.6255 234.374 20.2599H234.85V2.27273H240.465V51H235.041V45.3849H234.374C233.962 46.0511 233.375 46.8918 232.614 47.907C231.852 48.9062 230.766 49.8024 229.354 50.5955C227.942 51.3728 226.063 51.7614 223.715 51.7614ZM224.477 46.7173C226.729 46.7173 228.632 46.1304 230.187 44.9567C231.741 43.767 232.923 42.1254 233.732 40.0316C234.541 37.922 234.945 35.4872 234.945 32.7273C234.945 29.9991 234.549 27.6119 233.756 25.5657C232.963 23.5037 231.789 21.9016 230.234 20.7596C228.68 19.6017 226.761 19.0227 224.477 19.0227C222.097 19.0227 220.115 19.6334 218.528 20.8548C216.958 22.0603 215.776 23.7019 214.983 25.7798C214.206 27.8419 213.818 30.1577 213.818 32.7273C213.818 35.3286 214.214 37.692 215.007 39.8175C215.816 41.9271 217.006 43.6084 218.576 44.8615C220.162 46.0987 222.129 46.7173 224.477 46.7173ZM266.132 51V2.27273H285.642C289.226 2.27273 292.216 2.80409 294.611 3.86683C297.006 4.92957 298.807 6.40471 300.012 8.29226C301.218 10.1639 301.82 12.3211 301.82 14.7638C301.82 16.6673 301.44 18.3407 300.678 19.7841C299.917 21.2116 298.87 22.3854 297.538 23.3054C296.221 24.2095 294.714 24.8519 293.017 25.2326V25.7085C294.873 25.7878 296.61 26.3112 298.228 27.2788C299.862 28.2463 301.186 29.6025 302.201 31.3473C303.216 33.0762 303.724 35.1383 303.724 37.5334C303.724 40.1188 303.082 42.4267 301.797 44.457C300.528 46.4715 298.648 48.0656 296.158 49.2393C293.668 50.4131 290.598 51 286.95 51H266.132ZM276.434 42.5774H284.833C287.704 42.5774 289.797 42.0302 291.114 40.9357C292.43 39.8254 293.089 38.3503 293.089 36.5103C293.089 35.162 292.763 33.9724 292.113 32.9414C291.463 31.9104 290.535 31.1014 289.329 30.5146C288.14 29.9277 286.72 29.6342 285.07 29.6342H276.434V42.5774ZM276.434 22.663H284.071C285.483 22.663 286.736 22.4171 287.83 21.9254C288.941 21.4179 289.813 20.7041 290.448 19.7841C291.098 18.8641 291.423 17.7617 291.423 16.4769C291.423 14.7163 290.797 13.2966 289.544 12.218C288.306 11.1394 286.546 10.6001 284.262 10.6001H276.434V22.663ZM320.373 2.27273V51H310.237V2.27273H320.373ZM345.004 51.7138C341.308 51.7138 338.112 50.9286 335.416 49.3583C332.735 47.7721 330.665 45.5674 329.206 42.744C327.747 39.9047 327.017 36.6134 327.017 32.87C327.017 29.0949 327.747 25.7957 329.206 22.9723C330.665 20.133 332.735 17.9283 335.416 16.358C338.112 14.7718 341.308 13.9787 345.004 13.9787C348.7 13.9787 351.888 14.7718 354.569 16.358C357.265 17.9283 359.343 20.133 360.802 22.9723C362.262 25.7957 362.991 29.0949 362.991 32.87C362.991 36.6134 362.262 39.9047 360.802 42.744C359.343 45.5674 357.265 47.7721 354.569 49.3583C351.888 50.9286 348.7 51.7138 345.004 51.7138ZM345.052 43.8622C346.733 43.8622 348.137 43.3864 349.263 42.4347C350.389 41.4671 351.238 40.1506 351.809 38.4851C352.396 36.8196 352.689 34.9241 352.689 32.7987C352.689 30.6732 352.396 28.7777 351.809 27.1122C351.238 25.4467 350.389 24.1302 349.263 23.1626C348.137 22.1951 346.733 21.7113 345.052 21.7113C343.354 21.7113 341.927 22.1951 340.769 23.1626C339.627 24.1302 338.762 25.4467 338.176 27.1122C337.605 28.7777 337.319 30.6732 337.319 32.7987C337.319 34.9241 337.605 36.8196 338.176 38.4851C338.762 40.1506 339.627 41.4671 340.769 42.4347C341.927 43.3864 343.354 43.8622 345.052 43.8622ZM386.046 65.4659C382.763 65.4659 379.948 65.0138 377.6 64.1097C375.268 63.2215 373.412 62.008 372.032 60.4695C370.653 58.9309 369.756 57.2019 369.344 55.2827L378.718 54.0217C379.004 54.7513 379.456 55.4334 380.074 56.0678C380.693 56.7023 381.51 57.2099 382.525 57.5906C383.556 57.9871 384.809 58.1854 386.284 58.1854C388.489 58.1854 390.305 57.6461 391.733 56.5675C393.176 55.5047 393.898 53.7203 393.898 51.2141V44.5284H393.47C393.026 45.5436 392.359 46.5032 391.471 47.4073C390.583 48.3114 389.441 49.049 388.045 49.62C386.649 50.1911 384.984 50.4766 383.048 50.4766C380.304 50.4766 377.806 49.8421 375.554 48.5732C373.317 47.2884 371.533 45.3294 370.2 42.6964C368.884 40.0475 368.226 36.7006 368.226 32.6559C368.226 28.516 368.9 25.0581 370.248 22.2823C371.596 19.5065 373.389 17.4286 375.625 16.0487C377.878 14.6687 380.344 13.9787 383.025 13.9787C385.071 13.9787 386.784 14.3277 388.164 15.0256C389.544 15.7076 390.654 16.5642 391.495 17.5952C392.351 18.6103 393.01 19.6096 393.47 20.593H393.85V14.4545H403.915V51.3569C403.915 54.4658 403.153 57.0671 401.631 59.1609C400.108 61.2546 397.998 62.8249 395.302 63.8718C392.621 64.9345 389.536 65.4659 386.046 65.4659ZM386.26 42.8629C387.894 42.8629 389.274 42.4585 390.4 41.6495C391.542 40.8247 392.415 39.6509 393.018 38.1282C393.636 36.5896 393.945 34.7496 393.945 32.6083C393.945 30.467 393.644 28.6112 393.041 27.0408C392.439 25.4547 391.566 24.2254 390.424 23.353C389.282 22.4806 387.894 22.0444 386.26 22.0444C384.595 22.0444 383.191 22.4964 382.049 23.4006C380.907 24.2888 380.043 25.526 379.456 27.1122C378.869 28.6984 378.575 30.5304 378.575 32.6083C378.575 34.7179 378.869 36.542 379.456 38.0806C380.059 39.6033 380.923 40.785 382.049 41.6257C383.191 42.4505 384.595 42.8629 386.26 42.8629Z" fill="#00C893"/>
</svg>
